<svg width="198" height="199" viewBox="0 0 198 199" fill="none" xmlns="http://www.w3.org/2000/svg">
<path d="M190.009 136.73C183.676 152.491 173.524 166.69 160.211 177.271C129.705 201.519 84.4297 205.322 50.3081 186.499C61.1592 173.43 77.97 167.021 94.349 162.529C110.73 158.036 127.811 154.784 142.35 146.001C159.549 135.609 171.918 117.642 175.759 97.9168C179.602 78.1919 174.938 57.0098 163.403 40.5551C150.577 22.262 129.253 10.0649 106.948 8.81232C84.6418 7.55978 61.8739 17.469 47.9975 34.9767C32.9317 53.9871 29.0629 79.6262 29.7574 103.874C30.4922 129.508 35.6817 154.781 40.8509 179.898C21.4543 165.703 7.47684 144.273 2.30759 120.796C-12.1042 55.3482 43.058 -7.30149 110.107 0.691021C148.802 5.30471 183.36 34.7975 193.999 72.2878C199.994 93.4168 198.189 116.377 190.009 136.733V136.73Z" fill="#61B3FB"/>
</svg>
